<svg width="67" height="37" viewBox="0 0 67 37" fill="none" xmlns="http://www.w3.org/2000/svg">
<path d="M9.70881 1.09091L17.5156 26.6591H17.8054L25.6122 1.09091H35.0554L23.277 36H12.044L0.265625 1.09091H9.70881Z" fill="white"/>
<path d="M57.6832 11.5568C57.5696 10.3068 57.0639 9.33523 56.1662 8.64205C55.2798 7.9375 54.0128 7.58523 52.3651 7.58523C51.2741 7.58523 50.3651 7.72727 49.6378 8.01136C48.9105 8.29545 48.3651 8.6875 48.0014 9.1875C47.6378 9.67614 47.4503 10.2386 47.4389 10.875C47.4162 11.3977 47.5185 11.858 47.7457 12.2557C47.9844 12.6534 48.3253 13.0057 48.7685 13.3125C49.223 13.608 49.7685 13.8693 50.4048 14.0966C51.0412 14.3239 51.7571 14.5227 52.5526 14.6932L55.5526 15.375C57.2798 15.75 58.8026 16.25 60.1207 16.875C61.4503 17.5 62.5639 18.2443 63.4616 19.108C64.3707 19.9716 65.0582 20.9659 65.5241 22.0909C65.9901 23.2159 66.2287 24.4773 66.2401 25.875C66.2287 28.0795 65.6719 29.9716 64.5696 31.5511C63.4673 33.1307 61.8821 34.3409 59.8139 35.1818C57.7571 36.0227 55.2741 36.4432 52.3651 36.4432C49.4446 36.4432 46.8991 36.0057 44.7287 35.1307C42.5582 34.2557 40.8707 32.9261 39.6662 31.142C38.4616 29.358 37.8423 27.1023 37.8082 24.375H45.8878C45.956 25.5 46.2571 26.4375 46.7912 27.1875C47.3253 27.9375 48.0582 28.5057 48.9901 28.892C49.9332 29.2784 51.0241 29.4716 52.2628 29.4716C53.3991 29.4716 54.3651 29.3182 55.1605 29.0114C55.9673 28.7045 56.5866 28.2784 57.0185 27.733C57.4503 27.1875 57.6719 26.5625 57.6832 25.858C57.6719 25.1989 57.4673 24.6364 57.0696 24.1705C56.6719 23.6932 56.0582 23.2841 55.2287 22.9432C54.4105 22.5909 53.3651 22.267 52.0923 21.9716L48.4446 21.1193C45.4219 20.4261 43.0412 19.3068 41.3026 17.7614C39.5639 16.2045 38.7003 14.1023 38.7116 11.4545C38.7003 9.29545 39.2798 7.40341 40.4503 5.77841C41.6207 4.15341 43.2401 2.88636 45.3082 1.97727C47.3764 1.06818 49.7344 0.613636 52.3821 0.613636C55.0866 0.613636 57.4332 1.07386 59.4219 1.99432C61.4219 2.90341 62.973 4.18182 64.0753 5.82955C65.1776 7.47727 65.7401 9.38636 65.7628 11.5568H57.6832Z" fill="white"/>
</svg>
